<svg xmlns="http://www.w3.org/2000/svg" xmlns:xlink="http://www.w3.org/1999/xlink" version="1.1" id="Layer_1" x="0px" y="0px" width="100px" height="100px" viewBox="5.0 -10.0 100.0 135.0" enable-background="new 0 0 100 100" xml:space="preserve">
<path d="M68.736,69.021c0-1.055,0-2.127,0-3.203H80.33h1.066c1.77,0,3.203-1.435,3.203-3.202V18.841v-1.067  c0-1.77-1.435-3.203-3.203-3.203H18.765c-1.771,0-3.203,1.434-3.203,3.203v1.067v43.775c0,1.769,1.433,3.202,3.203,3.202h1.067  h43.682c0,1.078,0,2.152,0,3.203h-4.447v1.066c0,0.59-0.478,1.067-1.068,1.067h-12.81c-0.592,0-1.068-0.479-1.068-1.067v-1.066H2.75  v2.135c0,0,0,3.203,3.203,3.203h57.561c0,1.717,0,3.199,0,4.291c0,6.798,0.327,14.35,2.938,14.35c2.61,0,2.284-6.797,2.284-14.35  c0-1.153,0-2.627,0-4.291h25.473c3.203,0,3.203-3.203,3.203-3.203v-2.135H68.736z M19.833,61.549V18.841H80.33v42.708H68.736  c0-2.98,0-5.742,0-7.824H69.7l-0.999-8.438c1.754-0.736,2.805-2.354,3.054-4.024c0.752-5.052-2.301-5.747-2.456-7.941  c-0.078-1.115,0.396-2.392,1.325-3.499c0.955-1.146,2.173-2.329,2.173-2.329s-3.371-0.092-5.286,0.532  c-3.391,1.108-6.577,4.299-7.399,7.845c-1.008,4.351-0.082,7.825,3.438,9.223l-1.022,8.634h0.988c0,2.084,0,4.852,0,7.823  L19.833,61.549L19.833,61.549z"/>
<text x="0.0" y="117.5" font-size="5.0" font-weight="bold" font-family="Helvetica Neue, Helvetica, Arial-Unicode, Arial, Sans-serif" fill="#000000">Created by Anna Weiss</text><text x="0.0" y="122.5" font-size="5.0" font-weight="bold" font-family="Helvetica Neue, Helvetica, Arial-Unicode, Arial, Sans-serif" fill="#000000">from the Noun Project</text></svg>